
     <svg
        xmlns="http://www.w3.org/2000/svg"
        width="30"
        height="30"
        viewBox="0 0 51 51"
        fill="none"
        style="transform: rotate(0deg)"
      >
        <path
          d="M14.6077 33.6425C8.88405 33.6425 0.750977 34.3011 0.750977 26.2045C0.750977 22.3478 3.89147 19.2073 7.77577 19.2073C21.2744 19.2073 32.211 30.1439 32.211 43.6425C32.211 47.5149 29.1049 50.7775 25.1862 50.7775C17.5035 50.7775 18.1614 42.5854 18.1614 37.2238C18.1614 35.2403 16.5636 33.6425 14.6077 33.6425Z"
          fill="#fa6400"
          stroke="#fa6400"
          strokeWidth="0"
        />
        <path
          d="M33.6442 14.6067C33.6442 9.1977 34.421 0.75 26.6195 0.75C22.6511 0.75 19.209 3.63652 19.209 7.77479C19.209 21.2734 30.1456 32.2101 43.6442 32.2101H43.7544C47.6387 32.2101 50.7792 29.0696 50.7792 25.1853C50.7792 17.5025 42.5871 18.1605 37.2255 18.1605C35.242 18.1605 33.6442 16.5627 33.6442 14.6067Z"
           fill="#fa6400"
          stroke="#fa6400"
          strokeWidth="0"
        />
      </svg>
     
     